<?xml version="1.0" standalone="no"?>
<!DOCTYPE svg PUBLIC "-//W3C//DTD SVG 20010904//EN"
 "http://www.w3.org/TR/2001/REC-SVG-20010904/DTD/svg10.dtd">
<svg version="1.0" xmlns="http://www.w3.org/2000/svg"
 width="225.000000pt" height="225.000000pt" viewBox="0 0 225.000000 225.000000"
 preserveAspectRatio="xMidYMid meet">
<metadata>
Created by potrace 1.14, written by Peter Selinger 2001-2017
</metadata>
<g transform="translate(0.000000,225.000000) scale(0.100000,-0.100000)"
fill="#000000" stroke="none">
<path d="M1090 2180 c-15 -28 4 -60 35 -60 14 0 29 8 35 20 15 28 -4 60 -35
60 -14 0 -29 -8 -35 -20z"/>
<path d="M572 2068 c-29 -29 -11 -55 146 -211 87 -86 165 -157 173 -157 21 0
39 20 39 45 0 24 -307 335 -331 335 -8 0 -20 -5 -27 -12z"/>
<path d="M1477 1922 c-100 -100 -157 -165 -157 -178 0 -24 18 -44 39 -44 8 0
86 71 173 157 126 125 158 163 158 184 0 25 -15 39 -43 39 -7 0 -83 -71 -170
-158z"/>
<path d="M1096 2014 c-23 -23 -23 -275 0 -298 8 -9 22 -16 29 -16 7 0 21 7 29
16 23 23 23 275 0 298 -8 9 -22 16 -29 16 -7 0 -21 -7 -29 -16z"/>
<path d="M438 1753 c-86 -94 -408 -505 -408 -522 0 -13 40 -54 113 -118 107
-92 132 -121 276 -320 24 -33 24 -35 8 -62 -24 -40 -22 -118 3 -159 12 -20 38
-41 64 -53 39 -17 44 -23 49 -59 8 -59 49 -108 103 -122 39 -11 46 -17 54 -48
5 -19 17 -46 26 -59 18 -26 87 -60 121 -61 16 0 25 -9 33 -35 31 -93 161 -125
240 -59 l30 26 34 -21 c22 -14 50 -21 83 -21 69 0 112 30 138 97 16 42 25 53
48 57 59 12 117 74 117 125 0 15 10 23 42 31 52 15 93 55 109 108 9 32 17 42
33 42 28 0 81 34 101 64 23 34 30 96 16 138 -11 33 -8 43 57 180 l69 144 111
94 c75 64 111 102 112 116 0 22 -372 512 -396 521 -8 3 -72 -31 -143 -76
l-128 -81 -157 0 c-150 0 -161 -1 -281 -36 l-125 -37 -124 35 c-110 31 -137
44 -253 116 -72 45 -135 82 -140 82 -5 0 -21 -12 -35 -27z m145 -136 c69 -44
76 -51 64 -66 -8 -9 -87 -106 -177 -216 -90 -110 -169 -206 -176 -214 -13 -15
-13 -15 -136 90 l-30 25 178 221 c98 122 183 219 189 215 5 -3 45 -28 88 -55z
m1396 -167 l143 -185 -69 -62 c-37 -34 -73 -62 -79 -63 -9 0 -311 373 -337
416 -5 8 20 30 80 67 l86 56 17 -22 c9 -12 81 -105 159 -207z m-256 -140 c98
-124 181 -231 184 -237 3 -7 -21 -67 -53 -133 l-58 -121 -245 245 -246 245
-134 11 c-95 8 -137 8 -146 0 -7 -6 -43 -65 -80 -130 -72 -130 -93 -147 -144
-119 -50 28 -41 67 53 229 l83 145 159 47 159 47 145 -2 145 -2 178 -225z
m-863 179 c0 -5 -39 -78 -86 -161 -48 -85 -88 -168 -91 -188 -6 -47 32 -119
74 -143 42 -24 114 -24 155 0 21 12 52 54 97 132 l65 113 96 -6 95 -7 268
-267 c192 -192 267 -274 267 -290 0 -29 -42 -72 -71 -72 -15 0 -74 51 -185
161 -159 157 -164 161 -186 147 -13 -9 -25 -23 -26 -33 -3 -11 50 -71 152
-174 129 -130 156 -162 156 -186 0 -38 -26 -65 -64 -65 -27 0 -48 17 -141 110
-60 60 -115 110 -122 110 -17 0 -43 -29 -43 -47 0 -8 50 -66 110 -128 118
-121 127 -140 88 -182 -36 -38 -62 -30 -143 47 -41 39 -78 70 -84 70 -15 0
-41 -30 -41 -47 0 -8 30 -46 66 -84 71 -73 82 -103 49 -139 -20 -22 -74 -27
-92 -9 -6 6 -9 35 -6 72 4 53 2 67 -19 97 -13 19 -40 43 -61 53 -31 16 -37 24
-37 50 0 66 -70 147 -126 147 -18 0 -25 8 -34 39 -19 73 -78 121 -149 121 -21
0 -32 6 -36 21 -11 35 -64 87 -101 99 -38 13 -86 6 -123 -17 -27 -17 -19 -25
-115 106 -65 91 -74 107 -62 120 7 9 97 118 199 242 l186 227 61 -15 c33 -9
60 -19 60 -24z m-201 -746 c27 -33 21 -56 -32 -110 -49 -51 -95 -58 -121 -21
-27 38 -19 67 28 114 53 54 93 59 125 17z m175 -114 c45 -35 35 -64 -46 -146
-75 -76 -97 -85 -136 -57 -39 27 -30 76 26 136 47 51 97 88 118 88 6 0 23 -9
38 -21z m158 -156 c37 -34 24 -73 -51 -147 -74 -74 -104 -84 -141 -51 -39 35
-26 72 48 147 73 73 107 85 144 51z m122 -184 c42 -33 35 -68 -24 -123 -53
-50 -76 -56 -108 -28 -32 27 -35 55 -9 93 23 35 81 79 102 79 7 0 24 -9 39
-21z"/>
</g>
</svg>
